<?xml version="1.0" encoding="UTF-8"?>
<!DOCTYPE svg PUBLIC "-//W3C//DTD SVG 1.1//EN" "http://www.w3.org/Graphics/SVG/1.1/DTD/svg11.dtd">
<svg xmlns="http://www.w3.org/2000/svg" version="1.1" width="512px" height="512px" style="shape-rendering:geometricPrecision; text-rendering:geometricPrecision; image-rendering:optimizeQuality; fill-rule:evenodd; clip-rule:evenodd" xmlns:xlink="http://www.w3.org/1999/xlink">
<g><path style="opacity:0.971" fill="#000000" d="M 31.5,-0.5 C 73.5,-0.5 115.5,-0.5 157.5,-0.5C 161.313,1.14896 163.979,3.9823 165.5,8C 208.833,8.33333 252.167,8.66667 295.5,9C 297.734,10.6379 299.067,12.8045 299.5,15.5C 298.678,17.3885 297.845,19.3885 297,21.5C 296.25,22.1258 295.416,22.6258 294.5,23C 251.501,23.5 208.501,23.6667 165.5,23.5C 165.5,54.5 165.5,85.5 165.5,116.5C 259.335,116.833 353.001,116.499 446.5,115.5C 454.367,100.265 462.367,85.0988 470.5,70C 462.861,54.5505 454.861,39.3838 446.5,24.5C 405.669,23.6674 364.669,23.1674 323.5,23C 320.722,21.2872 319.055,18.7872 318.5,15.5C 318.933,12.8045 320.266,10.6379 322.5,9C 367.25,8.01074 411.917,8.34408 456.5,10C 467.634,29.6024 477.968,49.6024 487.5,70C 479.753,86.3273 471.586,102.494 463,118.5C 460.873,122.589 458.373,126.423 455.5,130C 358.582,131.495 261.582,131.995 164.5,131.5C 163.515,135.33 161.181,138.163 157.5,140C 115.833,140.667 74.1667,140.667 32.5,140C 27.3739,137.934 24.5406,134.1 24,128.5C 23.3333,89.5 23.3333,50.5 24,11.5C 24.302,6.0492 26.802,2.0492 31.5,-0.5 Z"/></g>
<g><path style="opacity:1" fill="#f8f6f7" d="M 121.5,14.5 C 121.5,51.1667 121.5,87.8333 121.5,124.5C 94.1667,124.5 66.8333,124.5 39.5,124.5C 39.5,87.8333 39.5,51.1667 39.5,14.5C 66.8333,14.5 94.1667,14.5 121.5,14.5 Z"/></g>
<g><path style="opacity:1" fill="#dcdaeb" d="M 121.5,14.5 C 130.833,14.5 140.167,14.5 149.5,14.5C 149.5,51.1667 149.5,87.8333 149.5,124.5C 140.167,124.5 130.833,124.5 121.5,124.5C 121.5,87.8333 121.5,51.1667 121.5,14.5 Z"/></g>
<g><path style="opacity:1" fill="#a3a1aa" d="M 149.5,14.5 C 150.498,51.3296 150.832,88.3296 150.5,125.5C 113.33,125.832 76.3296,125.498 39.5,124.5C 66.8333,124.5 94.1667,124.5 121.5,124.5C 130.833,124.5 140.167,124.5 149.5,124.5C 149.5,87.8333 149.5,51.1667 149.5,14.5 Z"/></g>
<g><path style="opacity:0.999" fill="#e85266" d="M 299.5,15.5 C 305.833,15.5 312.167,15.5 318.5,15.5C 319.055,18.7872 320.722,21.2872 323.5,23C 364.669,23.1674 405.669,23.6674 446.5,24.5C 433.833,24.5 421.167,24.5 408.5,24.5C 416.549,54.5822 417.549,84.9155 411.5,115.5C 423.167,115.5 434.833,115.5 446.5,115.5C 353.001,116.499 259.335,116.833 165.5,116.5C 165.5,85.5 165.5,54.5 165.5,23.5C 208.501,23.6667 251.501,23.5 294.5,23C 295.416,22.6258 296.25,22.1258 297,21.5C 297.845,19.3885 298.678,17.3885 299.5,15.5 Z"/></g>
<g><path style="opacity:1" fill="#e4374e" d="M 446.5,24.5 C 454.861,39.3838 462.861,54.5505 470.5,70C 462.367,85.0988 454.367,100.265 446.5,115.5C 434.833,115.5 423.167,115.5 411.5,115.5C 417.549,84.9155 416.549,54.5822 408.5,24.5C 421.167,24.5 433.833,24.5 446.5,24.5 Z"/></g>
<g><path style="opacity:1" fill="#070707" d="M 93.5,98.5 C 93.5,82.1667 93.5,65.8333 93.5,49.5C 91.5,49.5 89.5,49.5 87.5,49.5C 81.8189,47.1293 80.3189,43.1293 83,37.5C 83.9025,36.2986 85.0692,35.4652 86.5,35C 91.8333,34.3333 97.1667,34.3333 102.5,35C 104.939,35.7739 106.773,37.2739 108,39.5C 108.667,59.5 108.667,79.5 108,99.5C 105.087,104.689 100.92,105.856 95.5,103C 94.4178,101.67 93.7512,100.17 93.5,98.5 Z"/></g>
<g><path style="opacity:1" fill="#020000" d="M 195.5,44.5 C 212.837,44.3334 230.17,44.5001 247.5,45C 252.626,47.553 253.793,51.3864 251,56.5C 250.097,57.7014 248.931,58.5348 247.5,59C 230.167,59.6667 212.833,59.6667 195.5,59C 190.202,54.0918 190.202,49.2584 195.5,44.5 Z"/></g>
<g><path style="opacity:1" fill="#b6b4b5" d="M 87.5,49.5 C 89.5,49.5 91.5,49.5 93.5,49.5C 93.5,65.8333 93.5,82.1667 93.5,98.5C 92.5036,82.6754 92.1703,66.6754 92.5,50.5C 90.5853,50.7845 88.9187,50.4511 87.5,49.5 Z"/></g>
<g><path style="opacity:1" fill="#030101" d="M 195.5,81.5 C 228.835,81.3333 262.168,81.5 295.5,82C 300.434,84.6649 301.601,88.4982 299,93.5C 297.829,94.8932 296.329,95.7265 294.5,96C 261.833,96.6667 229.167,96.6667 196.5,96C 190.292,91.5805 189.958,86.7472 195.5,81.5 Z"/></g>
<g><path style="opacity:0.949" fill="#000101" d="M 33.5,184.5 C 74.168,184.333 114.835,184.5 155.5,185C 159.867,185.867 162.867,188.367 164.5,192.5C 260.498,193.333 356.498,193.833 452.5,194C 454.848,194.346 456.681,195.513 458,197.5C 467.333,215.5 476.667,233.5 486,251.5C 486.667,254.167 486.667,256.833 486,259.5C 476.469,278.732 466.302,297.565 455.5,316C 454.167,316.333 452.833,316.667 451.5,317C 355.832,317.167 260.165,317.667 164.5,318.5C 162.867,322.633 159.867,325.133 155.5,326C 114.833,326.667 74.1667,326.667 33.5,326C 27.6625,323.833 24.4958,319.666 24,313.5C 23.3333,274.833 23.3333,236.167 24,197.5C 24.6979,191.31 27.8646,186.977 33.5,184.5 Z"/></g>
<g><path style="opacity:1" fill="#f7f5f6" d="M 39.5,200.5 C 66.8333,200.5 94.1667,200.5 121.5,200.5C 121.5,237.167 121.5,273.833 121.5,310.5C 94.1667,310.5 66.8333,310.5 39.5,310.5C 39.5,273.833 39.5,237.167 39.5,200.5 Z"/></g>
<g><path style="opacity:1" fill="#dcdaeb" d="M 121.5,200.5 C 130.833,200.5 140.167,200.5 149.5,200.5C 149.5,237.167 149.5,273.833 149.5,310.5C 140.167,310.5 130.833,310.5 121.5,310.5C 121.5,273.833 121.5,237.167 121.5,200.5 Z"/></g>
<g><path style="opacity:1" fill="#79777e" d="M 39.5,200.5 C 76.3296,199.502 113.33,199.168 150.5,199.5C 150.5,236.833 150.5,274.167 150.5,311.5C 113.33,311.832 76.3296,311.498 39.5,310.5C 66.8333,310.5 94.1667,310.5 121.5,310.5C 130.833,310.5 140.167,310.5 149.5,310.5C 149.5,273.833 149.5,237.167 149.5,200.5C 140.167,200.5 130.833,200.5 121.5,200.5C 94.1667,200.5 66.8333,200.5 39.5,200.5 Z"/></g>
<g><path style="opacity:1" fill="#74cdf6" d="M 408.5,209.5 C 416.603,239.934 417.603,270.601 411.5,301.5C 329.5,301.5 247.5,301.5 165.5,301.5C 165.5,270.833 165.5,240.167 165.5,209.5C 246.5,209.5 327.5,209.5 408.5,209.5 Z"/></g>
<g><path style="opacity:1" fill="#5fb6fe" d="M 408.5,209.5 C 421.171,209.333 433.838,209.5 446.5,210C 454.627,225.088 462.627,240.254 470.5,255.5C 462.627,270.746 454.627,285.912 446.5,301C 434.838,301.5 423.171,301.667 411.5,301.5C 417.603,270.601 416.603,239.934 408.5,209.5 Z"/></g>
<g><path style="opacity:1" fill="#060606" d="M 97.5,274.5 C 96.9569,274.56 96.6236,274.893 96.5,275.5C 101.456,276.494 106.456,276.827 111.5,276.5C 117.369,278.304 118.869,281.971 116,287.5C 114.786,289.049 113.286,290.215 111.5,291C 101.167,291.667 90.8333,291.667 80.5,291C 74.4584,288.163 72.9584,283.663 76,277.5C 85.5476,266.231 93.7143,254.065 100.5,241C 97.8439,234.129 93.6772,232.962 88,237.5C 85.7572,245.968 81.0905,247.968 74,243.5C 71.6584,235.646 73.8251,229.146 80.5,224C 91.8406,217.218 102.007,218.718 111,228.5C 114.861,235.494 115.528,242.827 113,250.5C 108.398,258.921 103.231,266.921 97.5,274.5 Z"/></g>
<g><path style="opacity:1" fill="#000101" d="M 195.5,229.5 C 213.17,229.333 230.836,229.5 248.5,230C 253.741,234.204 253.741,238.537 248.5,243C 230.833,243.667 213.167,243.667 195.5,243C 191.304,240.019 190.471,236.186 193,231.5C 193.995,230.934 194.828,230.267 195.5,229.5 Z"/></g>
<g><path style="opacity:1" fill="#030507" d="M 196.5,265.5 C 229.168,265.333 261.835,265.5 294.5,266C 301.637,269.692 302.304,274.359 296.5,280C 262.833,280.667 229.167,280.667 195.5,280C 190.068,274.761 190.401,269.928 196.5,265.5 Z"/></g>
<g><path style="opacity:1" fill="#8a8989" d="M 97.5,274.5 C 102.167,275.167 106.833,275.833 111.5,276.5C 106.456,276.827 101.456,276.494 96.5,275.5C 96.6236,274.893 96.9569,274.56 97.5,274.5 Z"/></g>
<g><path style="opacity:0.971" fill="#000000" d="M 299.5,387.5 C 298.69,390.27 297.023,392.437 294.5,394C 251.501,394.5 208.501,394.667 165.5,394.5C 165.5,425.167 165.5,455.833 165.5,486.5C 258.999,487.666 352.666,487.832 446.5,487C 454.763,471.808 462.763,456.475 470.5,441C 462.763,425.525 454.763,410.192 446.5,395C 405.835,394.5 365.168,394.333 324.5,394.5C 321.018,393.357 319.018,391.024 318.5,387.5C 318.544,383.91 320.211,381.41 323.5,380C 367.584,379.011 411.584,379.344 455.5,381C 458.373,384.577 460.873,388.411 463,392.5C 471.586,408.506 479.753,424.673 487.5,441C 477.968,461.398 467.634,481.398 456.5,501C 359.581,502.329 262.581,502.995 165.5,503C 163.83,506.894 161.163,509.727 157.5,511.5C 115.5,511.5 73.5,511.5 31.5,511.5C 26.802,508.951 24.302,504.951 24,499.5C 23.3333,460.5 23.3333,421.5 24,382.5C 24.5406,376.9 27.3739,373.066 32.5,371C 74.1667,370.333 115.833,370.333 157.5,371C 160.833,373 163.5,375.667 165.5,379C 208.5,379.333 251.5,379.667 294.5,380C 297.789,381.41 299.456,383.91 299.5,387.5 Z"/></g>
<g><path style="opacity:1" fill="#f7f5f6" d="M 39.5,386.5 C 66.8333,386.5 94.1667,386.5 121.5,386.5C 121.5,423.167 121.5,459.833 121.5,496.5C 94.1667,496.5 66.8333,496.5 39.5,496.5C 39.5,459.833 39.5,423.167 39.5,386.5 Z"/></g>
<g><path style="opacity:1" fill="#dcdaeb" d="M 121.5,386.5 C 130.833,386.5 140.167,386.5 149.5,386.5C 149.5,423.167 149.5,459.833 149.5,496.5C 140.167,496.5 130.833,496.5 121.5,496.5C 121.5,459.833 121.5,423.167 121.5,386.5 Z"/></g>
<g><path style="opacity:1" fill="#a3a1aa" d="M 39.5,386.5 C 76.3296,385.502 113.33,385.168 150.5,385.5C 150.832,422.67 150.498,459.67 149.5,496.5C 149.5,459.833 149.5,423.167 149.5,386.5C 140.167,386.5 130.833,386.5 121.5,386.5C 94.1667,386.5 66.8333,386.5 39.5,386.5 Z"/></g>
<g><path style="opacity:1" fill="#fdd571" d="M 299.5,387.5 C 305.833,387.5 312.167,387.5 318.5,387.5C 319.018,391.024 321.018,393.357 324.5,394.5C 352.328,395.498 380.328,395.831 408.5,395.5C 416.655,425.439 417.655,455.606 411.5,486C 329.501,486.5 247.501,486.667 165.5,486.5C 165.5,455.833 165.5,425.167 165.5,394.5C 208.501,394.667 251.501,394.5 294.5,394C 297.023,392.437 298.69,390.27 299.5,387.5 Z"/></g>
<g><path style="opacity:1" fill="#f2b556" d="M 324.5,394.5 C 365.168,394.333 405.835,394.5 446.5,395C 454.763,410.192 462.763,425.525 470.5,441C 462.763,456.475 454.763,471.808 446.5,487C 352.666,487.832 258.999,487.666 165.5,486.5C 247.501,486.667 329.501,486.5 411.5,486C 417.655,455.606 416.655,425.439 408.5,395.5C 380.328,395.831 352.328,395.498 324.5,394.5 Z"/></g>
<g><path style="opacity:1" fill="#050505" d="M 88.5,405.5 C 107.304,404.14 116.47,412.806 116,431.5C 114.774,434.952 113.274,438.285 111.5,441.5C 119.025,453.077 117.691,463.577 107.5,473C 91.9445,480.469 80.7778,476.302 74,460.5C 71.6939,453.741 73.8605,449.407 80.5,447.5C 86.167,448.998 89.0003,452.665 89,458.5C 91.5594,461.349 94.7261,462.183 98.5,461C 103.362,453.14 101.029,448.807 91.5,448C 86.7509,443.884 86.4175,439.551 90.5,435C 93.7779,434.081 96.9446,432.914 100,431.5C 102.99,423.317 100.156,419.817 91.5,421C 89.3488,424.433 87.0155,427.766 84.5,431C 76.3846,432.218 72.8846,428.718 74,420.5C 77.0214,413.647 81.8548,408.647 88.5,405.5 Z"/></g>
<g><path style="opacity:1" fill="#070603" d="M 196.5,415.5 C 213.503,415.333 230.503,415.5 247.5,416C 253.729,420.171 254.062,424.837 248.5,430C 230.833,430.667 213.167,430.667 195.5,430C 190.068,424.761 190.401,419.928 196.5,415.5 Z"/></g>
<g><path style="opacity:1" fill="#020101" d="M 196.5,452.5 C 229.168,452.333 261.835,452.5 294.5,453C 300.292,455.09 301.792,458.924 299,464.5C 298.097,465.701 296.931,466.535 295.5,467C 262.167,467.667 228.833,467.667 195.5,467C 189.881,461.595 190.215,456.762 196.5,452.5 Z"/></g>
</svg>
